<svg width="162" height="32" viewBox="0 0 162 32" fill="none" xmlns="http://www.w3.org/2000/svg">
<path d="M158 0H4C1.79086 0 0 1.79086 0 4V28C0 30.2091 1.79086 32 4 32H158C160.209 32 162 30.2091 162 28V4C162 1.79086 160.209 0 158 0Z" fill="#1374EF"/>
<path d="M33 0H32V32H33V0Z" fill="#1269D3"/>
<path d="M10 17.5882H15.1651L12.1269 25L22 14.4118H16.8349L19.8731 7L10 17.5882Z" fill="white"/>
<path d="M49.2514 16.2718C49.2514 17.2813 49.0668 18.1492 48.6974 18.8755C48.3281 19.5988 47.8218 20.1558 47.1786 20.5467C46.5385 20.9345 45.8106 21.1284 44.995 21.1284C44.1764 21.1284 43.4454 20.9345 42.8022 20.5467C42.162 20.1558 41.6573 19.5972 41.288 18.8709C40.9187 18.1446 40.734 17.2782 40.734 16.2718C40.734 15.2624 40.9187 14.396 41.288 13.6728C41.6573 12.9464 42.162 12.3894 42.8022 12.0016C43.4454 11.6107 44.1764 11.4153 44.995 11.4153C45.8106 11.4153 46.5385 11.6107 47.1786 12.0016C47.8218 12.3894 48.3281 12.9464 48.6974 13.6728C49.0668 14.396 49.2514 15.2624 49.2514 16.2718ZM47.8388 16.2718C47.8388 15.5024 47.7141 14.8546 47.4648 14.3283C47.2186 13.7989 46.8801 13.3989 46.4492 13.128C46.0214 12.8541 45.5367 12.7172 44.995 12.7172C44.4503 12.7172 43.964 12.8541 43.5362 13.128C43.1084 13.3989 42.7699 13.7989 42.5206 14.3283C42.2744 14.8546 42.1513 15.5024 42.1513 16.2718C42.1513 17.0413 42.2744 17.6906 42.5206 18.22C42.7699 18.7463 43.1084 19.1464 43.5362 19.4203C43.964 19.6911 44.4503 19.8265 44.995 19.8265C45.5367 19.8265 46.0214 19.6911 46.4492 19.4203C46.8801 19.1464 47.2186 18.7463 47.4648 18.22C47.7141 17.6906 47.8388 17.0413 47.8388 16.2718Z" fill="white"/>
<path d="M50.7891 23.6582V13.9082H52.1371V15.0577H52.2525C52.3326 14.91 52.448 14.7392 52.5988 14.5453C52.7496 14.3514 52.9589 14.1821 53.2266 14.0375C53.4944 13.8897 53.8483 13.8159 54.2884 13.8159C54.8608 13.8159 55.3717 13.9605 55.8211 14.2498C56.2704 14.5391 56.6228 14.9561 56.8782 15.5009C57.1368 16.0456 57.266 16.7012 57.266 17.4675C57.266 18.2338 57.1383 18.8909 56.8829 19.4387C56.6274 19.9835 56.2766 20.4036 55.8303 20.699C55.384 20.9914 54.8747 21.1376 54.3023 21.1376C53.8714 21.1376 53.519 21.0653 53.2451 20.9206C52.9742 20.776 52.7619 20.6067 52.608 20.4128C52.4541 20.2189 52.3356 20.0466 52.2525 19.8958H52.1694V23.6582H50.7891ZM52.1417 17.4537C52.1417 17.9522 52.2141 18.3893 52.3587 18.7647C52.5034 19.1402 52.7126 19.4341 52.9866 19.6465C53.2605 19.8558 53.5959 19.9604 53.9929 19.9604C54.4054 19.9604 54.75 19.8511 55.027 19.6326C55.304 19.411 55.5133 19.111 55.6549 18.7324C55.7995 18.3539 55.8719 17.9276 55.8719 17.4537C55.8719 16.9859 55.8011 16.5658 55.6595 16.1934C55.521 15.821 55.3117 15.527 55.0317 15.3116C54.7547 15.0962 54.4084 14.9885 53.9929 14.9885C53.5929 14.9885 53.2543 15.0916 52.9773 15.2978C52.7034 15.504 52.4957 15.7917 52.3541 16.161C52.2125 16.5304 52.1417 16.9612 52.1417 17.4537Z" fill="white"/>
<path d="M61.7387 21.1422C61.04 21.1422 60.4383 20.993 59.9336 20.6944C59.432 20.3928 59.0442 19.9696 58.7703 19.4249C58.4994 18.8771 58.364 18.2354 58.364 17.4998C58.364 16.7735 58.4994 16.1333 58.7703 15.5794C59.0442 15.0254 59.4258 14.593 59.9151 14.2821C60.4076 13.9713 60.9831 13.8159 61.6417 13.8159C62.0418 13.8159 62.4296 13.882 62.8051 14.0144C63.1805 14.1467 63.5175 14.3545 63.8161 14.6376C64.1146 14.9208 64.35 15.2885 64.5224 15.7409C64.6947 16.1903 64.7809 16.7366 64.7809 17.3798V17.8691H59.1442V16.835H63.4283C63.4283 16.4719 63.3544 16.1503 63.2067 15.8702C63.059 15.5871 62.8512 15.3639 62.5835 15.2008C62.3188 15.0377 62.008 14.9561 61.6509 14.9561C61.2632 14.9561 60.9246 15.0516 60.6353 15.2424C60.3491 15.4301 60.1275 15.6763 59.9705 15.981C59.8167 16.2826 59.7397 16.6104 59.7397 16.9643V17.7722C59.7397 18.2462 59.8228 18.6493 59.989 18.9817C60.1583 19.3141 60.3937 19.568 60.6953 19.7434C60.9969 19.9158 61.3493 20.002 61.7525 20.002C62.0141 20.002 62.2526 19.965 62.4681 19.8912C62.6835 19.8142 62.8697 19.7003 63.0267 19.5495C63.1836 19.3987 63.3036 19.2125 63.3867 18.9909L64.6932 19.2264C64.5886 19.6111 64.4008 19.9481 64.13 20.2374C63.8622 20.5236 63.5252 20.7467 63.119 20.9068C62.7158 21.0637 62.2557 21.1422 61.7387 21.1422Z" fill="white"/>
<path d="M67.5628 16.7889V20.9991H66.1824V13.9082H67.5074V15.0623H67.5951C67.7582 14.6868 68.0136 14.3852 68.3614 14.1575C68.7123 13.9297 69.1539 13.8159 69.6863 13.8159C70.1695 13.8159 70.5927 13.9174 70.9559 14.1206C71.319 14.3206 71.6006 14.6191 71.8007 15.0162C72.0007 15.4132 72.1008 15.9041 72.1008 16.4888V20.9991H70.7204V16.655C70.7204 16.141 70.5866 15.7394 70.3188 15.4501C70.051 15.1577 69.6833 15.0115 69.2155 15.0115C68.8954 15.0115 68.6107 15.0808 68.3614 15.2193C68.1152 15.3578 67.9198 15.5609 67.7751 15.8287C67.6335 16.0933 67.5628 16.4134 67.5628 16.7889Z" fill="white"/>
<path d="M77.1324 20.9991V13.9082H78.5127V20.9991H77.1324ZM77.8295 12.8141C77.5894 12.8141 77.3832 12.7341 77.2109 12.574C77.0416 12.4109 76.957 12.217 76.957 11.9924C76.957 11.7646 77.0416 11.5707 77.2109 11.4107C77.3832 11.2476 77.5894 11.166 77.8295 11.166C78.0695 11.166 78.2742 11.2476 78.4435 11.4107C78.6158 11.5707 78.702 11.7646 78.702 11.9924C78.702 12.217 78.6158 12.4109 78.4435 12.574C78.2742 12.7341 78.0695 12.8141 77.8295 12.8141Z" fill="white"/>
<path d="M81.62 16.7889V20.9991H80.2397V13.9082H81.5646V15.0623H81.6523C81.8155 14.6868 82.0709 14.3852 82.4187 14.1575C82.7695 13.9297 83.2112 13.8159 83.7436 13.8159C84.2268 13.8159 84.65 13.9174 85.0131 14.1206C85.3763 14.3206 85.6579 14.6191 85.858 15.0162C86.058 15.4132 86.158 15.9041 86.158 16.4888V20.9991H84.7777V16.655C84.7777 16.141 84.6438 15.7394 84.3761 15.4501C84.1083 15.1577 83.7405 15.0115 83.2727 15.0115C82.9526 15.0115 82.668 15.0808 82.4187 15.2193C82.1725 15.3578 81.977 15.5609 81.8324 15.8287C81.6908 16.0933 81.62 16.4134 81.62 16.7889Z" fill="white"/>
<path d="M99.1531 14.6191H97.7127C97.6573 14.3114 97.5542 14.0405 97.4034 13.8066C97.2526 13.5727 97.068 13.3742 96.8495 13.2111C96.6309 13.048 96.3863 12.9249 96.1154 12.8418C95.8477 12.7587 95.563 12.7172 95.2614 12.7172C94.7166 12.7172 94.2288 12.8541 93.798 13.128C93.3702 13.4019 93.0316 13.8036 92.7823 14.3329C92.5361 14.8623 92.413 15.5086 92.413 16.2718C92.413 17.0413 92.5361 17.6906 92.7823 18.22C93.0316 18.7493 93.3717 19.1494 93.8026 19.4203C94.2335 19.6911 94.7182 19.8265 95.2568 19.8265C95.5553 19.8265 95.8384 19.7865 96.1062 19.7065C96.377 19.6234 96.6217 19.5018 96.8402 19.3418C97.0587 19.1818 97.2434 18.9863 97.3942 18.7555C97.5481 18.5216 97.6543 18.2538 97.7127 17.9522L99.1531 17.9569C99.0761 18.4216 98.9269 18.8494 98.7053 19.2402C98.4868 19.628 98.2052 19.9635 97.8605 20.2466C97.5188 20.5267 97.128 20.7437 96.6879 20.8975C96.2478 21.0514 95.7677 21.1284 95.2475 21.1284C94.4289 21.1284 93.6995 20.9345 93.0593 20.5467C92.4192 20.1558 91.9144 19.5972 91.5451 18.8709C91.1789 18.1446 90.9958 17.2782 90.9958 16.2718C90.9958 15.2624 91.1804 14.396 91.5497 13.6728C91.9191 12.9464 92.4238 12.3894 93.0639 12.0016C93.7041 11.6107 94.432 11.4153 95.2475 11.4153C95.7492 11.4153 96.217 11.4876 96.651 11.6323C97.088 11.7739 97.4804 11.9831 97.8282 12.2601C98.1759 12.534 98.4637 12.8695 98.6914 13.2665C98.9192 13.6605 99.0731 14.1113 99.1531 14.6191Z" fill="white"/>
<path d="M103.606 21.1422C102.941 21.1422 102.361 20.9899 101.866 20.6852C101.37 20.3805 100.985 19.9542 100.712 19.4064C100.438 18.8586 100.301 18.2185 100.301 17.486C100.301 16.7504 100.438 16.1072 100.712 15.5563C100.985 15.0054 101.37 14.5776 101.866 14.2729C102.361 13.9682 102.941 13.8159 103.606 13.8159C104.271 13.8159 104.851 13.9682 105.347 14.2729C105.842 14.5776 106.227 15.0054 106.501 15.5563C106.775 16.1072 106.911 16.7504 106.911 17.486C106.911 18.2185 106.775 18.8586 106.501 19.4064C106.227 19.9542 105.842 20.3805 105.347 20.6852C104.851 20.9899 104.271 21.1422 103.606 21.1422ZM103.611 19.9835C104.042 19.9835 104.399 19.8696 104.682 19.6419C104.965 19.4141 105.174 19.111 105.31 18.7324C105.448 18.3539 105.517 17.9368 105.517 17.4814C105.517 17.0289 105.448 16.6135 105.31 16.2349C105.174 15.8533 104.965 15.5471 104.682 15.3162C104.399 15.0854 104.042 14.97 103.611 14.97C103.177 14.97 102.817 15.0854 102.53 15.3162C102.247 15.5471 102.036 15.8533 101.898 16.2349C101.763 16.6135 101.695 17.0289 101.695 17.4814C101.695 17.9368 101.763 18.3539 101.898 18.7324C102.036 19.111 102.247 19.4141 102.53 19.6419C102.817 19.8696 103.177 19.9835 103.611 19.9835Z" fill="white"/>
<path d="M110.977 21.1376C110.404 21.1376 109.893 20.9914 109.444 20.699C108.998 20.4036 108.647 19.9835 108.391 19.4387C108.139 18.8909 108.013 18.2338 108.013 17.4675C108.013 16.7012 108.141 16.0456 108.396 15.5009C108.655 14.9561 109.009 14.5391 109.458 14.2498C109.907 13.9605 110.417 13.8159 110.986 13.8159C111.426 13.8159 111.78 13.8897 112.048 14.0375C112.319 14.1821 112.528 14.3514 112.676 14.5453C112.826 14.7392 112.943 14.91 113.026 15.0577H113.11V11.5446H114.49V20.9991H113.142V19.8958H113.026C112.943 20.0466 112.823 20.2189 112.666 20.4128C112.512 20.6067 112.3 20.776 112.029 20.9206C111.758 21.0653 111.408 21.1376 110.977 21.1376ZM111.281 19.9604C111.678 19.9604 112.014 19.8558 112.288 19.6465C112.565 19.4341 112.774 19.1402 112.916 18.7647C113.06 18.3893 113.133 17.9522 113.133 17.4537C113.133 16.9612 113.062 16.5304 112.92 16.161C112.779 15.7917 112.571 15.504 112.297 15.2978C112.023 15.0916 111.685 14.9885 111.281 14.9885C110.866 14.9885 110.52 15.0962 110.243 15.3116C109.966 15.527 109.756 15.821 109.615 16.1934C109.476 16.5658 109.407 16.9859 109.407 17.4537C109.407 17.9276 109.478 18.3539 109.619 18.7324C109.761 19.111 109.97 19.411 110.247 19.6326C110.527 19.8511 110.872 19.9604 111.281 19.9604Z" fill="white"/>
<path d="M119.386 21.1422C118.687 21.1422 118.086 20.993 117.581 20.6944C117.079 20.3928 116.692 19.9696 116.418 19.4249C116.147 18.8771 116.011 18.2354 116.011 17.4998C116.011 16.7735 116.147 16.1333 116.418 15.5794C116.692 15.0254 117.073 14.593 117.563 14.2821C118.055 13.9713 118.63 13.8159 119.289 13.8159C119.689 13.8159 120.077 13.882 120.452 14.0144C120.828 14.1467 121.165 14.3545 121.463 14.6376C121.762 14.9208 121.997 15.2885 122.17 15.7409C122.342 16.1903 122.428 16.7366 122.428 17.3798V17.8691H116.792V16.835H121.076C121.076 16.4719 121.002 16.1503 120.854 15.8702C120.706 15.5871 120.499 15.3639 120.231 15.2008C119.966 15.0377 119.655 14.9561 119.298 14.9561C118.911 14.9561 118.572 15.0516 118.283 15.2424C117.996 15.4301 117.775 15.6763 117.618 15.981C117.464 16.2826 117.387 16.6104 117.387 16.9643V17.7722C117.387 18.2462 117.47 18.6493 117.636 18.9817C117.806 19.3141 118.041 19.568 118.343 19.7434C118.644 19.9158 118.997 20.002 119.4 20.002C119.661 20.002 119.9 19.965 120.115 19.8912C120.331 19.8142 120.517 19.7003 120.674 19.5495C120.831 19.3987 120.951 19.2125 121.034 18.9909L122.341 19.2264C122.236 19.6111 122.048 19.9481 121.777 20.2374C121.51 20.5236 121.173 20.7467 120.766 20.9068C120.363 21.0637 119.903 21.1422 119.386 21.1422Z" fill="white"/>
<path d="M123.941 20.9991V11.5446H127.311C128.046 11.5446 128.656 11.6784 129.139 11.9462C129.622 12.214 129.984 12.5802 130.224 13.0449C130.464 13.5066 130.584 14.0267 130.584 14.6053C130.584 15.187 130.462 15.7102 130.219 16.1749C129.979 16.6365 129.616 17.0028 129.13 17.2736C128.646 17.5414 128.039 17.6752 127.306 17.6752H124.989V16.4657H127.177C127.641 16.4657 128.019 16.3857 128.308 16.2257C128.597 16.0626 128.809 15.841 128.945 15.5609C129.08 15.2808 129.148 14.9623 129.148 14.6053C129.148 14.2483 129.08 13.9313 128.945 13.6543C128.809 13.3773 128.596 13.1603 128.303 13.0034C128.014 12.8464 127.632 12.7679 127.158 12.7679H125.367V20.9991H123.941Z" fill="white"/>
<path d="M134.982 21.1422C134.284 21.1422 133.682 20.993 133.177 20.6944C132.676 20.3928 132.288 19.9696 132.014 19.4249C131.743 18.8771 131.608 18.2354 131.608 17.4998C131.608 16.7735 131.743 16.1333 132.014 15.5794C132.288 15.0254 132.67 14.593 133.159 14.2821C133.651 13.9713 134.227 13.8159 134.886 13.8159C135.286 13.8159 135.673 13.882 136.049 14.0144C136.424 14.1467 136.761 14.3545 137.06 14.6376C137.358 14.9208 137.594 15.2885 137.766 15.7409C137.939 16.1903 138.025 16.7366 138.025 17.3798V17.8691H132.388V16.835H136.672C136.672 16.4719 136.598 16.1503 136.451 15.8702C136.303 15.5871 136.095 15.3639 135.827 15.2008C135.563 15.0377 135.252 14.9561 134.895 14.9561C134.507 14.9561 134.168 15.0516 133.879 15.2424C133.593 15.4301 133.371 15.6763 133.214 15.981C133.06 16.2826 132.984 16.6104 132.984 16.9643V17.7722C132.984 18.2462 133.067 18.6493 133.233 18.9817C133.402 19.3141 133.638 19.568 133.939 19.7434C134.241 19.9158 134.593 20.002 134.996 20.002C135.258 20.002 135.496 19.965 135.712 19.8912C135.927 19.8142 136.114 19.7003 136.27 19.5495C136.427 19.3987 136.547 19.2125 136.631 18.9909L137.937 19.2264C137.832 19.6111 137.645 19.9481 137.374 20.2374C137.106 20.5236 136.769 20.7467 136.363 20.9068C135.96 21.0637 135.5 21.1422 134.982 21.1422Z" fill="white"/>
<path d="M140.807 16.7889V20.9991H139.426V13.9082H140.751V15.0623H140.839C141.002 14.6868 141.257 14.3852 141.605 14.1575C141.956 13.9297 142.398 13.8159 142.93 13.8159C143.413 13.8159 143.837 13.9174 144.2 14.1206C144.563 14.3206 144.844 14.6191 145.045 15.0162C145.245 15.4132 145.345 15.9041 145.345 16.4888V20.9991H143.964V16.655C143.964 16.141 143.83 15.7394 143.563 15.4501C143.295 15.1577 142.927 15.0115 142.459 15.0115C142.139 15.0115 141.855 15.0808 141.605 15.2193C141.359 15.3578 141.164 15.5609 141.019 15.8287C140.877 16.0933 140.807 16.4134 140.807 16.7889Z" fill="white"/>
</svg>
